# xmcd
#
# Track frame offsets:
#	150
#	6675
#	25463
#	44325
#	48939
#	65325
#	85200
#	99750
#	111221
#	126738
#	139839
#	160425
#	164175
#	181575
#	204375
#	220575
#	243001
#
# Disc length: 3500 seconds
#
# Revision: 1
# Processed by: cddbd v1.5.2PL0 Copyright (c) Steve Scherf et al.
# Submitted via: audiograbber 1.83.01
#
DISCID=ef0daa11
DTITLE=Dailey and Vincent - Alive! In Concert
DYEAR=1900
DGENRE=Bluegrass
TTITLE0=Introduction by Statler Brother Don Reid
TTITLE1=We're All Here To Learn (w/ orchestra)
TTITLE2=I'll Leave My Heart In Tennessee
TTITLE3=Caramel Candy Joke
TTITLE4=Nine Yards (instrumental)
TTITLE5=Simple Man
TTITLE6=Mississippi River
TTITLE7=Oh Baby Mine (w/ orchestra)
TTITLE8=Elizabeth
TTITLE9=Atlanta Blue (w/ orchestra)
TTITLE10=I Believe
TTITLE11=Springer Mountain Farms Hoedown
TTITLE12=Beyond Romance
TTITLE13=American Pride
TTITLE14=Oh What A Time
TTITLE15=Till They Came Home (w/ orchestra)
TTITLE16=America The Beautiful (w/ orchestra and 100-person chorale)
EXTD=
EXTT0=
EXTT1=
EXTT2=
EXTT3=
EXTT4=
EXTT5=
EXTT6=
EXTT7=
EXTT8=
EXTT9=
EXTT10=
EXTT11=
EXTT12=
EXTT13=
EXTT14=
EXTT15=
EXTT16=
PLAYORDER=
